<svg width="865" height="103" viewBox="0 0 865 103" fill="none" xmlns="http://www.w3.org/2000/svg">
<path d="M48.2 5.20001C19.2 8.60001 0.299999 33.7 6.1 61.2C9.5 77.5 20.9 89.6 38.3 95.5C47.3 98.5 59.2 98.9 68.4 96.5C76.8 94.3 86.9 88.7 92.1 83.4L96.5 78.9L89 72L81.5 65.2L76.2 70.1C57.7 87 27.1 75.7 27 51.9C27 35.6 38.5 24.6 55.6 24.7C62.7 24.8 70.9 28 77.5 33.4L81.5 36.8L89.4 30.1L97.2 23.5L91.6 18.4C80.1 7.90001 64.7 3.20001 48.2 5.20001Z" fill="#783592"/>
<path d="M112 51V95H122.5H133V51V7H122.5H112V51Z" fill="#783592"/>
<path d="M204.4 8.3C204.1 9.1 204 13 204.2 17.1L204.5 24.5L214.8 24.8L225 25.1V16V7H215C207.5 7 204.8 7.3 204.4 8.3Z" fill="#783592"/>
<path d="M245 16V25H284.5H324.1L323.8 16.2L323.5 7.5L284.3 7.2L245 7V16Z" fill="#783592"/>
<path d="M340 16V25H379.5H419V16V7H379.5H340V16Z" fill="#783592"/>
<path d="M464 14.9V23H487.5C513.1 23 515.5 23.4 517.8 28.5C520.2 33.8 518.5 39.1 513.5 41.5C510.8 42.7 505.9 43 487.1 43H464V50.5V57.9L492.6 58.2L521.2 58.5L524.1 61.8C529.4 67.7 527 75.8 519.2 78C517.1 78.5 504.3 79 489.8 79H464V87V95H495.3C530.4 95 533 94.6 539.4 88.4C545.2 82.8 546.4 79.5 546.5 70.5C546.5 61.2 544.9 57.1 539.1 51.4L535.3 47.8L537.4 43.7C538.9 40.6 539.5 37.6 539.5 32.5C539.4 21.6 534.8 14.5 524.5 9.8C519.7 7.60001 518.2 7.50001 491.8 7.2L464 6.8V14.9Z" fill="#783592"/>
<path d="M560 7.7C560 8.2 568.6 20.2 579 34.5L598 60.5V77.7V95H608.5H619V77.2V59.4L638 33.5L656.9 7.5L645.4 7.2C639 7.1 633.3 7.4 632.6 7.9C632 8.4 626.3 16.5 620 25.9C613.7 35.3 608.3 43 608 43C607.7 43 602.1 34.9 595.6 25L583.7 7H571.9C565.3 7 560 7.3 560 7.7Z" fill="#8606B8"/>
<path d="M666 16V25H715H764V16V7H715H666V16Z" fill="#783592"/>
<path d="M777.7 7.7C777.4 8.2 777.3 12.1 777.4 16.5L777.5 24.5L816.8 24.8L856 25V16V7H817.1C795.6 7 777.9 7.3 777.7 7.7Z" fill="#783592"/>
<path d="M204 67V95H214.5H225V67V39H214.5H204V67Z" fill="#783592"/>
<path d="M245 67V95H253.5H262V75.5V56H293H324V47.5V39H284.5H245V67Z" fill="#783592"/>
<path d="M340.2 66.2L340.5 93.5H349H357.5L357.8 74.7L358 56H388.5H419V47.5V39H379.5H340L340.2 66.2Z" fill="#783592"/>
<path d="M704 67V95H714.5H725V67V39H714.5H704V67Z" fill="#783592"/>
<path d="M777 51.5V60H816.5H856V51.5V43H816.5H777V51.5Z" fill="#783592"/>
<path d="M146 86.5V95H165.5H185V86.5V78H165.5H146V86.5Z" fill="#783592"/>
<path d="M778 86.5V95H817H856V86.5V78H817H778V86.5Z" fill="#783592"/>
</svg>
